<svg xmlns="http://www.w3.org/2000/svg" viewBox="0 0 240 240" fill="none">
  <rect width="240" height="240" rx="60" fill="#5865F2"/>
  <path d="M196.26 70.24c-14.71-6.75-30.4-11.58-46.66-14.4-2.02 3.58-4.26 8.45-5.83 12.28-17.64-2.64-35.11-2.64-52.42 0-1.57-3.83-3.89-8.7-5.91-12.28-16.26 2.82-31.95 7.65-46.66 14.4C13.11 107.97 6.32 144.65 9.32 180.75c19.64 14.4 38.67 23.12 57.29 28.9 4.61-6.25 8.71-12.84 12.29-19.78-6.75-2.56-13.16-5.73-19.23-9.44 1.61-1.18 3.18-2.41 4.69-3.67 37.04 17.07 77.23 17.07 113.63 0 1.51 1.26 3.08 2.49 4.69 3.67-6.07 3.71-12.48 6.88-19.23 9.44 3.58 6.94 7.68 13.53 12.29 19.78 18.62-5.78 37.65-14.5 57.29-28.9 3.58-41.8-6-78.12-25.47-110.51zM83.31 155.31c-8.33 0-15.19-7.65-15.19-17.07s6.69-17.07 15.19-17.07c8.5 0 15.36 7.65 15.19 17.07.17 9.42-6.69 17.07-15.19 17.07zm73.38 0c-8.33 0-15.19-7.65-15.19-17.07s6.69-17.07 15.19-17.07c8.5 0 15.36 7.65 15.19 17.07.17 9.42-6.69 17.07-15.19 17.07z" fill="white"/>
</svg>