<svg xmlns="http://www.w3.org/2000/svg" viewBox="0 0 240 240" fill="none">
  <rect width="240" height="240" rx="60" fill="#FF6D5A"/>
  <path d="M156.92 68.43c-8.8 0-15.93 7.13-15.93 15.93v71.28c0 8.8 7.13 15.93 15.93 15.93s15.93-7.13 15.93-15.93V84.36c0-8.8-7.13-15.93-15.93-15.93z" fill="white"/>
  <path d="M83.08 68.43c-8.8 0-15.93 7.13-15.93 15.93v15.93h31.86V84.36c0-8.8-7.13-15.93-15.93-15.93z" fill="white"/>
  <path d="M67.15 124.22h31.86v31.86c0 8.8-7.13 15.93-15.93 15.93s-15.93-7.13-15.93-15.93v-31.86z" fill="white"/>
  <path d="M99.01 100.29H67.15v23.93h31.86v-23.93z" fill="white"/>
  <path d="M120 100.29c8.8 0 15.93 7.13 15.93 15.93s-7.13 15.93-15.93 15.93s-15.93-7.13-15.93-15.93s7.13-15.93 15.93-15.93z" fill="white"/>
</svg>