<svg xmlns="http://www.w3.org/2000/svg" viewBox="0 0 240 240" fill="none">
  <rect width="240" height="240" rx="60" fill="#412991"/>
  <path d="M190.5 89.5c-1.3-15.1-13.1-27.6-28.6-30.4-8.1-1.5-16.5-.7-24.2 2.3-6.8-12.2-19.5-19.9-33.7-20.4-14.2-.5-27.5 6.6-35.3 18.3-7.8-2.4-16.4-2.6-24.4-.6-15.5 3.9-26.8 17.7-27.4 33.8-12.3 6.8-20 19.5-20.4 33.7-.4 14.2 6.6 27.5 18.3 35.3-1.3 15.1 13.1 27.6 28.6 30.4 8.1 1.5 16.5.7 24.2-2.3 6.8 12.2 19.5 19.9 33.7 20.4 14.2.5 27.5-6.6 35.3-18.3 7.8 2.4 16.4 2.6 24.4.6 15.5-3.9 26.8-17.7 27.4-33.8 12.3-6.8 20-19.5 20.4-33.7.4-14.2-6.6-27.5-18.3-35.3zm-70.5 73.4c-18.8 0-34-15.2-34-34s15.2-34 34-34 34 15.2 34 34-15.2 34-34 34z" fill="white"/>
</svg>