<svg xmlns="http://www.w3.org/2000/svg" viewBox="0 0 240 240" fill="none">
  <rect width="240" height="240" rx="60" fill="#25D366"/>
  <path d="M120 45.6c-41.04 0-74.4 33.36-74.4 74.4 0 13.2 3.36 25.68 9.6 36.48L45.6 194.4l38.88-9.12c10.32 5.76 22.32 9.12 35.52 9.12 41.04 0 74.4-33.36 74.4-74.4s-33.36-74.4-74.4-74.4zm41.52 105.6c-1.92 5.28-9.12 9.6-15.36 10.56-3.84.48-8.88.96-25.92-5.52-20.64-7.68-34.32-28.56-35.28-29.76-.96-1.2-8.16-10.8-8.16-20.64s5.04-14.64 6.72-16.8c1.68-2.16 3.6-2.64 4.8-2.64 1.2 0 2.4 0 3.36.48 1.2.48 2.88-.48 4.56 3.36 1.92 4.32 6.24 15.36 6.72 16.32.48.96.96 2.16.24 3.36-.72 1.2-1.2 1.92-2.16 2.88-.96.96-1.92 2.16-1.44 4.32 1.2 4.32 5.28 13.44 11.28 18.24 7.68 6.24 14.16 8.16 16.32 9.12 2.16.96 3.36.48 4.32-.48.96-.96 4.32-5.04 5.52-6.72 1.2-1.68 2.4-1.44 4.08-.48 1.68.96 10.56 4.8 12.48 5.76s3.12 1.2 3.6 1.92c.48.72.48 4.32-1.44 8.4z" fill="white"/>
</svg>