<svg xmlns="http://www.w3.org/2000/svg" viewBox="0 0 240 240" fill="none">
  <rect width="240" height="240" rx="60" fill="#FF0000"/>
  <path d="M223.5 85.2c-2.6-9.8-10.3-17.5-20.1-20.1C185.7 60 120 60 120 60s-65.7 0-83.4 5.1c-9.8 2.6-17.5 10.3-20.1 20.1C11.4 102.9 11.4 120 11.4 120s0 17.1 5.1 34.8c2.6 9.8 10.3 17.5 20.1 20.1C54.3 180 120 180 120 180s65.7 0 83.4-5.1c9.8-2.6 17.5-10.3 20.1-20.1 5.1-17.7 5.1-34.8 5.1-34.8s0-17.1-5.1-34.8z" fill="white"/>
  <path d="M104.6 144.9L154.3 120 104.6 95.1v49.8z" fill="#FF0000"/>
</svg>